PathFileType	4	(X/Y/Z)	C:/Users/beibeiliu/ov580/test_trc/capture2\sequence.24_training_dense_left.trc
DataRate	CameraRate	NumFrames	NumMarkers	Units	OrigDataRate	OrigDataStartFrame	OrigNumFrames
120	120	24	19	mm	120	51	400
Frame#	Time	ThumbCMC			ThumbMCP			ThumbIP			ThumbTip			IndexMCP			IndexPIP			IndexTip			MiddleMCP			MiddlePIP			MiddleTip			RingMCP			RingPIP			RingTip			PinkyMCP			PinkyPIP			PinkyTip			BackHand1			BackHand2			BackHand3	
		X0	Y0	Z0	X1	Y1	Z1	X2	Y2	Z2	X3	Y3	Z3	X4	Y4	Z4	X5	Y5	Z5	X6	Y6	Z6	X7	Y7	Z7	X8	Y8	Z8	X9	Y9	Z9	X10	Y10	Z10	X11	Y11	Z11	X12	Y12	Z12	X13	Y13	Z13	X14	Y14	Z14	X15	Y15	Z15	X16	Y16	Z16	X17	Y17	Z17	X18	Y18	Z18	
50	0.416667	-118.402	154.09	26.7253	-89.5983	154.925	1.84154	-76.3582	153.332	-21.7348	-70.8561	144.533	-46.9154	-136.879	167.151	-43.5495	-129.88	169.569	-71.2094	-126.295	174.823	-90.8432	-138.71	146.397	-56.5974	-131.768	152.187	-82.618	-124.802	155.558	-107.523	-121.792	126.484	-55.7361	-87.84	129.723	-56.3677	-84.6381	132.371	-21.7585	-106.237	108.861	-43.8479	-82.1523	115.867	-30.7014	-88.4054	127.573	-1.86094	-151.416	110.454	-9.66262	-155.702	103.543	17.0519	-155.65	137.268	10.4645	
51	0.425	-117.604	152.283	25.9209	-86.5771	154.072	3.85263	-75.5237	149.346	-21.651	-70.9798	138.192	-48.751	-135.63	161.984	-47.9977	-127.905	167.196	-71.694	-123.689	168.304	-96.6716	-137.581	143.116	-57.173	-131.509	149.719	-80.1693	-122.777	150.87	-113.269	-120.377	124.645	-56.7164	-88.6209	128.466	-58.3065	-80.3445	126.774	-27.0118	-107.614	101.256	-43.4644	-82.1947	114.626	-28.5889	-91.898	125.256	-2.95192	-150.315	110.102	-11.2769	-154.624	100.359	17.6606	-155.64	138.135	9.11865	
52	0.433333	-119.719	148.242	20.2028	-89.9237	149.239	3.62893	-73.4951	147.093	-28.1006	-71.1739	132.136	-47.3836	-134.047	154.149	-49.8609	-125.968	158.735	-73.5448	-119.676	159.206	-98.8666	-136.331	136.318	-63.1247	-129.887	142.93	-83.1098	-120.341	147.674	-111.576	-119.522	113.127	-56.3673	-88.5726	120.98	-60.5436	-78.7182	122.966	-27.5475	-105.249	96.7148	-42.2318	-81.5703	109.799	-27.237	-91.0657	120.679	2.85189	-148.415	106.843	-12.737	-156.934	97.4624	19.2086	-154.727	135.974	5.08603	
53	0.441667	-118.791	148.096	20.8173	-87.8678	147.502	-2.89669	-71.8836	142.086	-27.792	-70.7304	125.268	-44.6244	-132.491	148.675	-52.083	-123.259	152.739	-77.0881	-118.484	153.005	-97.8532	-134.303	133.731	-63.6627	-126.715	134.688	-88.7536	-117.814	135.331	-114.272	-118.02	112.147	-58.429	-88.2836	111.986	-61.8889	-76.3939	119.955	-32.6546	-106.251	93.6582	-42.3136	-81.0647	105.678	-29.8035	-87.7633	117.845	-1.78628	-150.998	99.1859	-10.1429	-156.739	97.8097	17.3036	-154.32	134.249	2.77993	
54	0.45	-118.345	145.821	14.0957	-88.3224	142.541	-1.33649	-71.1086	135.447	-26.3878	-69.8109	116.34	-42.2301	-130.819	141.61	-55.5633	-121.553	144.635	-82.3601	-117.087	143.264	-100.664	-133.261	120.704	-63.7374	-123.583	125.637	-90.3793	-115.284	126.304	-116.532	-117.01	99.7544	-57.2366	-84.4213	103.032	-60.4316	-76.7597	113.867	-32.2311	-102.111	87.0957	-41.7926	-79.3607	98.7195	-28.8986	-89.189	113.159	-3.36554	-149.483	95.0658	-12.3913	-154.285	92.6955	18.8218	-152.281	129.252	2.57852	
55	0.458333	-118.457	140.103	13.1381	-85.3582	138.123	-4.68657	-71.6788	126.61	-25.0314	-66.3985	106.832	-43.6503	-130.024	133.659	-55.9704	-119.296	135.135	-81.7208	-114.272	132.978	-104.17	-132.116	115.99	-64.4155	-123.448	117.694	-91.1469	-114.41	112.996	-113.942	-117.829	96.2897	-56.1874	-82.3298	98.0391	-60.2329	-75.7699	108.176	-31.9579	-101.928	79.1298	-40.5533	-78.7242	92.6258	-30.5134	-89.2602	107.965	0.425055	-147.508	93.7012	-11.4788	-154.849	93.8226	15.9957	-154.78	124.05	2.60147	
56	0.466667	-117.907	138.537	9.26087	-84.1959	134.982	-5.75628	-67.76	122.586	-27.0175	-65.2545	100.758	-40.8931	-128.857	128.833	-60.532	-118.417	129.594	-83.0638	-112.77	126.306	-104.066	-130.63	108.089	-67.378	-120.436	105.935	-92.6816	-110.912	101.421	-118.122	-115.961	88.4548	-55.7442	-81.9084	90.9898	-59.4907	-77.2	105.427	-30.5671	-104.256	74.8816	-38.0329	-77.6975	86.3406	-30.257	-86.0343	103.43	-0.673406	-146.471	84.5937	-15.7001	-156.353	86.7914	17.9859	-151.458	121.278	-2.77078	
57	0.475	-119.359	132.875	11.3723	-86.8	129.03	-4.55944	-71.2659	112.296	-26.4342	-69.7391	91.8402	-37.19	-126.479	121.41	-63.7683	-116.933	117.578	-85.2728	-110.21	114.516	-107.683	-129.926	99.0368	-67.259	-120.912	97.0614	-88.6905	-108.393	92.8494	-119.02	-112.548	81.8564	-59.6404	-82.2503	86.1403	-61.5198	-75.5658	98.0081	-33.5904	-101.294	67.7522	-37.1848	-74.579	81.1317	-25.3603	-82.2193	98.7779	-0.221743	-144.486	79.8258	-11.9078	-155.553	87.0388	15.7476	-152.983	114.375	-1.97364	
58	0.483333	-118.57	132.637	10.0553	-86.1931	123.847	-5.94662	-70.0793	110.912	-24.6467	-69.9703	84.7063	-37.61	-127.157	114.209	-61.6969	-116.668	110.68	-84.1484	-108.307	104.258	-110.24	-129.158	92.5632	-64.717	-117.777	90.394	-93.8812	-107.519	86.7995	-119.498	-113.834	74.8034	-56.0786	-81.3268	79.0343	-59.748	-74.8642	93.0229	-33.528	-99.6724	62.1584	-36.7179	-75.4138	76.6156	-27.8856	-84.4299	95.7828	-0.592006	-144.364	79.1139	-14.9586	-154.298	80.8248	17.4015	-152.773	108.834	-4.63909	
59	0.491667	-118.441	129.58	9.72597	-85.4453	120.259	-6.75773	-69.7109	105.894	-25.3484	-71.6159	79.3358	-35.0869	-125.841	110.652	-66.9099	-114.867	108.903	-89.3484	-108.088	98.9871	-105.946	-128.622	86.6387	-68.2787	-119.612	85.9894	-90.5428	-106.88	77.9474	-116.241	-111.201	69.8752	-58.4757	-80.9677	77.4454	-59.5446	-75.8874	90.485	-28.1306	-101.058	58.6436	-34.802	-74.2585	74.3923	-24.0475	-84.2165	90.0384	-3.19878	-145.102	70.4209	-9.81742	-154.747	75.479	16.6084	-153.162	108.672	-5.543	
60	0.5	-119.462	126.701	8.30469	-86.9245	117.616	-7.40185	-68.1442	100.921	-29.1411	-72.0676	77.2329	-35.7726	-127.236	105.187	-61.5595	-116.297	100.602	-85.4545	-107.189	91.3879	-110.055	-129.464	86.7305	-67.8821	-119.25	80.685	-89.5586	-107.516	77.5866	-119.963	-112.122	65.9086	-57.4624	-80.4436	70.1414	-58.7058	-75.6416	86.707	-32.1138	-100.801	56.9091	-35.8826	-74.7207	68.0836	-25.7068	-81.861	86.9212	-0.827485	-144.24	69.7771	-14.5513	-154.772	75.4086	17.9549	-151.565	100.119	-4.58861	
61	0.508333	-118.918	124.429	5.65983	-85.0206	116.232	-8.76933	-67.8766	101.012	-27.361	-68.59	73.1474	-39.4626	-128	99.3993	-62.4389	-116.964	95.3319	-87.3612	-109.103	91.1286	-109.807	-129.046	82.0011	-69.7835	-118.482	75.6646	-93.9177	-108.084	72.1816	-119.74	-112.662	60.4888	-55.8382	-81.9991	68.2038	-60.2275	-76.5128	81.7882	-28.8226	-98.8054	50.7113	-37.0128	-75.2836	66.8984	-26.2643	-85.8673	85.0108	-4.25049	-144.071	65.4793	-14.6041	-153.51	72.3419	14.6465	-155.101	103.169	-5.12224	
62	0.516667	-119.305	122.323	6.9506	-85.5749	112.428	-11.7113	-71.1722	99.066	-27.0677	-72.2317	71.4927	-40.658	-129.514	99.9131	-66.0368	-120.545	96.6803	-87.1164	-110.542	86.8617	-111.161	-131.958	81.9697	-68.0757	-121.948	78.523	-95.7098	-112.666	69.7907	-118.973	-114.372	60.8237	-58.7369	-85.6918	67.5804	-63.224	-79.162	81.5981	-30.1822	-103.21	50.7714	-37.9756	-77.4784	64.1609	-27.8208	-87.0753	83.5128	-2.04756	-149.306	67.9755	-10.8785	-155.122	74.0802	15.476	-154.193	100.756	-5.02455	
63	0.525	-119.498	119.393	7.84176	-87.4261	112.087	-10.4533	-73.9782	97.9593	-30.0198	-75.1205	72.5371	-43.146	-133.107	102.739	-63.4508	-123.905	98.6771	-88.7706	-116.992	92.3452	-111.615	-135.639	82.4089	-68.7961	-127.897	80.8219	-92.2373	-117.975	77.3231	-120.058	-120.838	63.7729	-57.073	-89.4608	68.9723	-63.6479	-81.078	79.4748	-33.3695	-109.783	52.7728	-39.212	-80.6531	62.2127	-30.2856	-89.3717	84.1765	-6.73189	-150.25	69.3406	-11.5498	-158.063	68.1333	18.7657	-156.343	101.368	-5.08542	
64	0.533333	-119.662	116.032	9.1879	-87.4007	110.816	-7.4794	-74.0679	97.2892	-35.9334	-78.6244	74.9864	-46.7513	-136.963	106.498	-62.4	-129.706	104.802	-87.8295	-125.205	101.932	-107.206	-141.951	90.6053	-66.6299	-134.124	86.1083	-93.9209	-126.938	82.3962	-120.429	-126.412	65.24	-60.9527	-96.0439	68.8797	-66.8792	-85.624	81.0484	-36.1093	-113.502	55.7128	-41.9435	-85.3171	63.6576	-33.6861	-89.4954	78.6135	-5.44015	-153.618	69.3107	-10.9319	-157.474	70.6345	18.9406	-154.312	103.021	0.254005	
65	0.541667	-115.366	113.851	13.5268	-87.8448	105.764	-12.09	-77.1032	96.8818	-31.8693	-82.9663	78.127	-52.9201	-140.376	115.905	-52.3662	-134.936	113.109	-81.5805	-133.79	110.381	-106.525	-146.789	99.4641	-62.9096	-142.254	94.4707	-90.1263	-138.38	91.8785	-114.544	-132.774	76.8442	-61.0727	-103.033	74.3596	-68.0255	-89.3621	77.9669	-38.4833	-118.434	58.8753	-45.8866	-91.6934	60.6806	-35.7334	-93.6664	80.9225	-10.4861	-156.176	73.6092	-6.98789	-161.165	70.1405	18.197	-155.181	103.12	6.48105	
66	0.55	-110.16	111.447	17.2932	-85.3438	104.543	-8.6028	-79.6961	96.6932	-36.4653	-87.9983	81.3144	-58.8914	-140.876	124.262	-45.13	-139.099	125.211	-73.066	-139.633	124.576	-98.4431	-151.651	106.753	-57.992	-149.244	110.686	-80.5356	-145.812	108.487	-112.828	-140.281	83.5088	-59.6224	-112.188	77.2693	-71.7568	-93.9982	79.6076	-45.464	-130.61	61.2514	-46.384	-100.555	63.9257	-42.7144	-97.6094	72.5926	-11.4549	-159.721	79.223	-3.95816	-159.535	72.138	21.3464	-152.776	106.487	13.3861	
67	0.558333	-106.881	108.923	20.3753	-85.5053	100.835	-7.99056	-81.1155	97.9234	-38.7002	-97.9743	83.1278	-58.3583	-140.869	127.513	-39.3761	-139.429	133.628	-64.5121	-142.758	136.713	-88.4613	-152.905	114.156	-50.2174	-153.252	119.853	-77.6963	-152.152	121.673	-104.652	-146.333	92.2714	-55.8791	-118.14	87.1849	-70.8782	-99.1489	83.4375	-45.682	-133.835	67.8648	-50.4995	-104.926	66.2262	-45.0437	-104.141	75.568	-13.975	-162.05	82.1312	-1.68646	-158.544	74.1287	23.1427	-149.171	106.87	18.1471	
68	0.566667	-103.788	103.421	24.5666	-84.0761	98.0287	-7.37676	-84.9879	96.7706	-34.0917	-99.23	87.8943	-58.958	-138.683	135.12	-34.1363	-139.572	142.228	-60.8979	-143.156	143.233	-81.872	-154.327	122.506	-43.032	-154.873	128.987	-68.0105	-152.276	137.998	-95.3947	-149.084	102.101	-49.1514	-124.97	97.0205	-70.0528	-102.825	84.4154	-50.0422	-141.249	73.9795	-50.0836	-110.599	72.6926	-49.8393	-104.629	76.39	-19.8054	-161.028	86.8754	-1.24489	-161.675	72.4019	25.8331	-146.435	105.152	21.6002	
69	0.575	-105.04	96.2156	27.3811	-87.3321	94.8048	-7.57278	-85.6486	97.5845	-35.3178	-100.049	92.4365	-57.7333	-134.36	142.316	-24.998	-135.208	148.885	-51.9665	-138.529	152.954	-73.692	-152.811	130.289	-38.0212	-154.143	139.066	-59.929	-150.633	151.145	-88.9965	-150.23	106.993	-46.5992	-128.613	104.501	-68.108	-103.442	92.2878	-48.454	-143.748	83.327	-48.9854	-114.144	79.5137	-51.736	-103.886	73.2823	-23.4161	-162.511	86.5854	5.08308	-160.769	69.4086	30.264	-144.448	103.823	27.7953	
70	0.583333	-101.717	93.699	30.2383	-89.9942	90.4894	-3.82918	-85.7953	96.6762	-33.0986	-102.073	97.0797	-55.9327	-130.871	145.137	-16.8536	-129.585	154.947	-36.9257	-133.792	161.279	-66.1955	-146.766	136.801	-26.6919	-149.382	147.814	-51.3436	-144.321	163.212	-75.7693	-149.331	113.751	-40.6279	-122.395	112.971	-60.8439	-102.004	93.3238	-40.8816	-143.662	90.8071	-46.9325	-117.018	81.4431	-52.8673	-105.103	76.8102	-20.5628	-162.181	89.9945	5.11525	-158.137	73.4673	32.4373	-142.504	102.83	32.9336	
71	0.591667	-101.736	92.1574	29.9523	-86.0714	87.0991	-1.38469	-87.9923	95.7838	-30.0248	-100.591	99.6706	-54.6005	-128.073	143.004	-12.6975	-124.624	157.436	-34.59	-127.137	167.251	-58.0386	-144.154	140.661	-19.4606	-142.325	157.205	-41.5883	-139.711	173.865	-68.8898	-144.008	122.717	-36.6731	-124.689	119.935	-56.7658	-101.884	95.1795	-38.2658	-145.794	95.8862	-39.4311	-116.885	89.4067	-49.5892	-103.845	76.7935	-20.9923	-160.433	94.5431	7.18044	-161.246	74.7995	31.7566	-139.285	105.534	36.9461	
72	0.6	-99.9023	85.9562	35.2226	-86.7993	85.8191	-0.511746	-83.6817	96.2932	-28.6784	-101.758	102.313	-49.7514	-123.322	145.923	-6.31533	-121.07	158.811	-26.7663	-120.412	171.163	-46.5555	-141.051	145.053	-16.8522	-139.467	161.872	-38.9789	-136.151	177.965	-59.7114	-142.71	126.046	-32.5171	-118.748	123.186	-52.5947	-99.9505	99.1074	-34.9908	-142.935	103.713	-34.2567	-118.216	93.9635	-49.0547	-105.313	74.3742	-23.554	-161.53	95.8409	12.2003	-161.494	75.4571	36.6492	-139.45	102.256	40.087	
73	0.608333	-101.052	84.4473	36.6756	-90.1137	88.1478	-0.113451	-87.3171	98.775	-29.0276	-98.4058	104.428	-49.0058	-117.599	147.687	1.44267	-113.688	164.769	-19.1368	-117.049	176.362	-42.6065	-134.469	148.107	-8.78063	-134.535	164.206	-28.914	-131.571	185.297	-53.5898	-139.498	130.507	-25.0879	-115.605	126.431	-47.3373	-100.945	99.3117	-32.6901	-140.663	109.418	-34.9105	-117.857	95.2038	-47.0274	-106.924	81.0194	-18.8137	-156.512	102.254	15.3187	-163.168	79.1034	32.5611	-137.468	104.307	41.2643	
